<mxfile host="app.diagrams.net" modified="2021-12-01T07:25:44.660Z" agent="5.0 (Macintosh; Intel Mac OS X 10_14_6) AppleWebKit/537.36 (KHTML, like Gecko) Chrome/96.0.4664.55 Safari/537.36" etag="GadCxfMQIK-O66jBiTGM" version="15.8.7" type="github">
  <diagram id="bidqViDuy0kArtp9ck6T" name="Page-1">
    <mxGraphModel dx="1355" dy="923" grid="1" gridSize="10" guides="1" tooltips="1" connect="1" arrows="1" fold="1" page="1" pageScale="1" pageWidth="827" pageHeight="1169" math="0" shadow="0">
      <root>
        <mxCell id="0" />
        <mxCell id="1" parent="0" />
        <mxCell id="a6eZDzm0ZfsKsIiyP4fu-1" value="" style="rounded=1;whiteSpace=wrap;html=1;fontSize=16;" vertex="1" parent="1">
          <mxGeometry x="40" y="120" width="540" height="220" as="geometry" />
        </mxCell>
        <mxCell id="a6eZDzm0ZfsKsIiyP4fu-3" value="经典详情页" style="rounded=1;whiteSpace=wrap;html=1;fontSize=16;" vertex="1" parent="1">
          <mxGeometry x="440" y="200" width="120" height="60" as="geometry" />
        </mxCell>
        <mxCell id="a6eZDzm0ZfsKsIiyP4fu-4" value="上下滑容器" style="rounded=1;whiteSpace=wrap;html=1;fontSize=16;" vertex="1" parent="1">
          <mxGeometry x="220" y="250" width="120" height="60" as="geometry" />
        </mxCell>
        <mxCell id="a6eZDzm0ZfsKsIiyP4fu-5" value="形态复用业务" style="rounded=1;whiteSpace=wrap;html=1;fontSize=16;" vertex="1" parent="1">
          <mxGeometry x="70" y="250" width="120" height="60" as="geometry" />
        </mxCell>
        <mxCell id="a6eZDzm0ZfsKsIiyP4fu-6" value="形态复用框架" style="rounded=1;whiteSpace=wrap;html=1;fontSize=16;" vertex="1" parent="1">
          <mxGeometry x="70" y="400" width="120" height="60" as="geometry" />
        </mxCell>
        <mxCell id="a6eZDzm0ZfsKsIiyP4fu-9" value="上下滑详情页" style="rounded=1;whiteSpace=wrap;html=1;fontSize=16;" vertex="1" parent="1">
          <mxGeometry x="70" y="170" width="270" height="60" as="geometry" />
        </mxCell>
        <mxCell id="a6eZDzm0ZfsKsIiyP4fu-11" value="详情页" style="text;html=1;strokeColor=none;fillColor=none;align=center;verticalAlign=middle;whiteSpace=wrap;rounded=0;fontSize=16;" vertex="1" parent="1">
          <mxGeometry x="260" y="130" width="130" height="30" as="geometry" />
        </mxCell>
        <mxCell id="a6eZDzm0ZfsKsIiyP4fu-12" value="容器统一框架" style="rounded=1;whiteSpace=wrap;html=1;fontSize=16;" vertex="1" parent="1">
          <mxGeometry x="220" y="400" width="120" height="60" as="geometry" />
        </mxCell>
      </root>
    </mxGraphModel>
  </diagram>
</mxfile>
